<?xml version="1.0" encoding="utf-8"?>
<!-- Generator: Adobe Illustrator 24.2.3, SVG Export Plug-In . SVG Version: 6.00 Build 0)  -->
<svg version="1.1" id="Layer_1" xmlns="http://www.w3.org/2000/svg" xmlns:xlink="http://www.w3.org/1999/xlink" x="0px" y="0px"
	 viewBox="0 0 30 30" style="enable-background:new 0 0 30 30;" xml:space="preserve">
<style type="text/css">
	.st0{fill:url(#SVGID_1_);}
	.st1{display:none;}
	.st2{display:inline;fill:#991135;}
	.st3{fill:#6A1B9A;}
	.st4{fill:#F4F4F4;}
	.st5{fill:url(#SVGID_2_);}
	.st6{fill:url(#SVGID_3_);}
	.st7{fill:url(#SVGID_4_);}
	.st8{fill:url(#SVGID_5_);}
	.st9{fill:url(#SVGID_6_);}
	.st10{fill:url(#SVGID_7_);}
	.st11{fill:url(#SVGID_8_);}
	.st12{fill:url(#SVGID_9_);}
	.st13{fill:url(#SVGID_10_);}
	.st14{fill:url(#SVGID_11_);}
	.st15{fill:url(#SVGID_12_);}
	.st16{fill:#EAE8E9;}
	.st17{display:inline;}
	.st18{fill:#991135;}
	.st19{display:inline;fill:#989FA8;}
	.st20{display:inline;fill:#AA224C;}
	.st21{fill:#EFEFEF;}
	.st22{fill:url(#SVGID_13_);}
	.st23{fill:url(#SVGID_14_);}
	.st24{fill:url(#SVGID_15_);}
	.st25{fill:url(#SVGID_16_);}
</style>
<g id="Layer_2_2_">
	<g>
		<g>
			<g>
				<g>
					<g>
						
							<linearGradient id="SVGID_1_" gradientUnits="userSpaceOnUse" x1="0.6582" y1="-207.0944" x2="28.7069" y2="-207.0944" gradientTransform="matrix(1 0 0 1 0 222)">
							<stop  offset="3.540000e-02" style="stop-color:#9F19AB"/>
							<stop  offset="0.2438" style="stop-color:#AE25B1"/>
							<stop  offset="0.6455" style="stop-color:#D744BF"/>
							<stop  offset="1" style="stop-color:#FF63CE"/>
						</linearGradient>
						<circle class="st0" cx="14.7" cy="14.9" r="14"/>
						<g class="st1">
							<path class="st2" d="M26.2-1.1c-5.2-2.1-12-1.9-12-1.9s-6.8-0.2-12,1.9c0,0-3.6,1.4-3.3,4.4l0,0c0.6-0.5,2.1-1,3.9-1.2
								C4.7,1.9,6.4,2,7.1,2.4l0,0c0,0-0.3-2.9,7.1-2.8c7.4-0.1,7.1,2.8,7.1,2.8l0,0c0.6-0.4,2.3-0.6,4.3-0.3
								c1.8,0.2,3.3,0.7,3.9,1.2l0,0C29.7,0.3,26.2-1.1,26.2-1.1z"/>
						</g>
						<g>
							<g>
								<ellipse class="st3" cx="14.6" cy="15.1" rx="11.9" ry="11.9"/>
							</g>
						</g>
						<g>
							<g>
								<ellipse class="st4" cx="14.6" cy="15.1" rx="11.4" ry="11.4"/>
							</g>
							<g>
								<g>
									
										<linearGradient id="SVGID_2_" gradientUnits="userSpaceOnUse" x1="18.5092" y1="-213.0921" x2="22.3698" y2="-213.0921" gradientTransform="matrix(1 0 0 1 0 222)">
										<stop  offset="0" style="stop-color:#834D9B"/>
										<stop  offset="1" style="stop-color:#A84D9B"/>
									</linearGradient>
									<path class="st5" d="M22.2,9.7c-0.5,1-1.6,1.4-2.6,0.9c-1-0.5-1.4-1.6-0.9-2.6c0.5-1,1.6-1.4,2.6-0.9
										C22.2,7.6,22.6,8.8,22.2,9.7z"/>
								</g>
								<g>
									
										<linearGradient id="SVGID_3_" gradientUnits="userSpaceOnUse" x1="13.8569" y1="-215.2719" x2="17.7153" y2="-215.2719" gradientTransform="matrix(1 0 0 1 0 222)">
										<stop  offset="0" style="stop-color:#834D9B"/>
										<stop  offset="1" style="stop-color:#A84D9B"/>
									</linearGradient>
									<path class="st6" d="M17.5,7.5c-0.5,1-1.6,1.4-2.6,0.9C14,8,13.6,6.9,14,5.9c0.5-1,1.6-1.4,2.6-0.9
										C17.6,5.4,18,6.6,17.5,7.5z"/>
								</g>
								<g>
									
										<linearGradient id="SVGID_4_" gradientUnits="userSpaceOnUse" x1="8.8607" y1="-214.5727" x2="12.7214" y2="-214.5727" gradientTransform="matrix(1 0 0 1 0 222)">
										<stop  offset="0" style="stop-color:#834D9B"/>
										<stop  offset="1" style="stop-color:#A84D9B"/>
									</linearGradient>
									<path class="st7" d="M12.5,8.2c-0.5,1-1.6,1.4-2.6,0.9C9,8.7,8.6,7.6,9,6.6c0.5-1,1.6-1.4,2.6-0.9
										C12.6,6.1,13,7.3,12.5,8.2z"/>
								</g>
								<g>
									
										<linearGradient id="SVGID_5_" gradientUnits="userSpaceOnUse" x1="5.3238" y1="-211.2837" x2="9.1848" y2="-211.2837" gradientTransform="matrix(1 0 0 1 0 222)">
										<stop  offset="0" style="stop-color:#834D9B"/>
										<stop  offset="1" style="stop-color:#A84D9B"/>
									</linearGradient>
									<path class="st8" d="M9,11.5c-0.5,1-1.6,1.4-2.6,0.9C5.5,12,5,10.9,5.5,9.9C6,8.9,7.1,8.5,8.1,9C9,9.4,9.4,10.6,9,11.5z"/>
								</g>
								<g>
									
										<linearGradient id="SVGID_6_" gradientUnits="userSpaceOnUse" x1="4.1421" y1="-206.3884" x2="8.0027" y2="-206.3884" gradientTransform="matrix(1 0 0 1 0 222)">
										<stop  offset="0" style="stop-color:#834D9B"/>
										<stop  offset="1" style="stop-color:#A84D9B"/>
									</linearGradient>
									<path class="st9" d="M7.8,16.4c-0.5,1-1.6,1.4-2.6,0.9c-1-0.5-1.4-1.6-0.9-2.6c0.5-1,1.6-1.4,2.6-0.9
										C7.9,14.3,8.3,15.5,7.8,16.4z"/>
								</g>
								<g>
									
										<linearGradient id="SVGID_7_" gradientUnits="userSpaceOnUse" x1="5.8324" y1="-201.7822" x2="9.6931" y2="-201.7822" gradientTransform="matrix(1 0 0 1 0 222)">
										<stop  offset="0" style="stop-color:#834D9B"/>
										<stop  offset="1" style="stop-color:#A84D9B"/>
									</linearGradient>
									<path class="st10" d="M9.5,21C9,22,7.9,22.4,6.9,22c-1-0.5-1.4-1.6-0.9-2.6s1.6-1.4,2.6-0.9C9.5,18.9,10,20.1,9.5,21z"/>
								</g>
								<g>
									
										<linearGradient id="SVGID_8_" gradientUnits="userSpaceOnUse" x1="9.6956" y1="-198.8073" x2="13.5563" y2="-198.8073" gradientTransform="matrix(1 0 0 1 0 222)">
										<stop  offset="0" style="stop-color:#834D9B"/>
										<stop  offset="1" style="stop-color:#A84D9B"/>
									</linearGradient>
									<path class="st11" d="M13.4,24c-0.5,1-1.6,1.4-2.6,0.9c-1-0.5-1.4-1.6-0.9-2.6c0.5-1,1.6-1.4,2.6-0.9
										C13.4,21.9,13.8,23,13.4,24z"/>
								</g>
								<g>
									
										<linearGradient id="SVGID_9_" gradientUnits="userSpaceOnUse" x1="14.5012" y1="-198.4372" x2="18.3596" y2="-198.4372" gradientTransform="matrix(1 0 0 1 0 222)">
										<stop  offset="0" style="stop-color:#834D9B"/>
										<stop  offset="1" style="stop-color:#A84D9B"/>
									</linearGradient>
									<path class="st12" d="M18.2,24.4c-0.5,1-1.6,1.4-2.6,0.9c-1-0.5-1.4-1.6-0.9-2.6c0.5-1,1.6-1.4,2.6-0.9
										C18.2,22.3,18.6,23.4,18.2,24.4z"/>
								</g>
								<g>
									
										<linearGradient id="SVGID_10_" gradientUnits="userSpaceOnUse" x1="18.7998" y1="-200.7266" x2="22.6605" y2="-200.7266" gradientTransform="matrix(1 0 0 1 0 222)">
										<stop  offset="0" style="stop-color:#834D9B"/>
										<stop  offset="1" style="stop-color:#A84D9B"/>
									</linearGradient>
									<path class="st13" d="M22.5,22.1c-0.5,1-1.6,1.4-2.6,0.9c-1-0.5-1.4-1.6-0.9-2.6c0.5-1,1.6-1.4,2.6-0.9
										C22.5,20,22.9,21.1,22.5,22.1z"/>
								</g>
							</g>
							<g>
								
									<linearGradient id="SVGID_11_" gradientUnits="userSpaceOnUse" x1="21.1747" y1="-203.841" x2="26.5079" y2="-203.841" gradientTransform="matrix(1 0 0 1 0 222)">
									<stop  offset="3.540000e-02" style="stop-color:#9F19AB"/>
									<stop  offset="0.2438" style="stop-color:#AE25B1"/>
									<stop  offset="0.6455" style="stop-color:#D744BF"/>
									<stop  offset="1" style="stop-color:#FF63CE"/>
								</linearGradient>
								<path class="st14" d="M26.5,16.6c0,0-0.1,1.7-0.8,3c0,0-3.4,0.4-4.5-1.9c0,0-0.1-1.3,1.3-0.2C23.8,18.7,26.5,16.6,26.5,16.6
									z"/>
							</g>
							<g>
								
									<linearGradient id="SVGID_12_" gradientUnits="userSpaceOnUse" x1="8.7328" y1="-206.8614" x2="20.4403" y2="-206.8614" gradientTransform="matrix(1 0 0 1 0 222)">
									<stop  offset="0" style="stop-color:#834D9B"/>
									<stop  offset="1" style="stop-color:#A84D9B"/>
								</linearGradient>
								<ellipse class="st15" cx="14.6" cy="15.1" rx="5.9" ry="5.9"/>
							</g>
							<g>
								<ellipse class="st16" cx="14.6" cy="15.1" rx="5.2" ry="5.2"/>
							</g>
						</g>
						<g class="st1">
							<path class="st2" d="M19.4-3c-0.5,0-0.9-0.1-1.5,2.2c-0.6,2.3-6.8,2.3-7.4,0C9.9-3.1,9.5-3,9-3C8.5-3,7.6-0.9,8.4,1
								c0.5,1.1,1,1.5,1.4,1.7c0.2,0.1,0.4,0.4,0.4,0.7v0.1h4h4V3.4c0-0.3,0.2-0.5,0.4-0.7c0.3-0.2,0.8-0.6,1.4-1.7
								C20.8-0.9,19.9-3,19.4-3z"/>
						</g>
						<g class="st1">
							<path class="st2" d="M7.5,4.6c0.1,0.7-1.8,1.5-4.2,1.8c-2.4,0.3-4.5,0-4.5-0.7C-1.3,5,0.6,4.2,3,3.9S7.5,4,7.5,4.6z"/>
						</g>
						<g class="st1">
							<path class="st2" d="M3,3.9c2.4-0.3,4.5,0,4.5,0.7L7.3,2.8c-0.1-0.7-2.1-1-4.5-0.7s-4.3,1.1-4.2,1.8l0.2,1.8
								C-1.3,5,0.6,4.2,3,3.9z"/>
						</g>
						<g class="st1">
							<path class="st2" d="M20.8,4.6c-0.1,0.7,1.8,1.5,4.2,1.8c2.4,0.3,4.5,0,4.5-0.7c0.1-0.7-1.8-1.5-4.2-1.8S20.9,4,20.8,4.6z"/>
						</g>
						<g class="st1">
							<path class="st2" d="M25.4,3.9c-2.4-0.3-4.5,0-4.5,0.7L21,2.8c0.1-0.7,2.1-1,4.5-0.7s4.3,1.1,4.2,1.8l-0.2,1.8
								C29.7,5,27.8,4.2,25.4,3.9z"/>
						</g>
						<g class="st1">
							<g class="st17">
								<g>
									<path class="st18" d="M23.6,4.2c0.5,0,1.1,0,1.7,0.1c2.5,0.3,3.8,1,3.9,1.3c-0.1,0.2-0.8,0.5-2.4,0.5c-0.5,0-1.1,0-1.7-0.1
										c-2.5-0.3-3.8-1-3.9-1.3C21.3,4.5,22.1,4.2,23.6,4.2L23.6,4.2z M23.6,3.8c-1.6,0-2.7,0.3-2.8,0.8c-0.1,0.7,1.8,1.5,4.2,1.8
										c0.6,0.1,1.2,0.1,1.7,0.1c1.6,0,2.7-0.3,2.8-0.8c0.1-0.7-1.8-1.5-4.2-1.8C24.7,3.9,24.2,3.8,23.6,3.8L23.6,3.8z"/>
								</g>
							</g>
						</g>
						<g class="st1">
							<g class="st17">
								<g>
									<path class="st18" d="M4.7,4.2c1.6,0,2.3,0.3,2.4,0.5C7,5,5.8,5.7,3.2,6C2.7,6.1,2.1,6.1,1.5,6.1C0,6.1-0.7,5.8-0.8,5.7
										c0.1-0.3,1.3-1,3.9-1.3C3.6,4.3,4.2,4.2,4.7,4.2L4.7,4.2z M4.7,3.8c-0.5,0-1.1,0-1.7,0.1C0.6,4.2-1.3,5-1.2,5.7
										C-1.2,6.2,0,6.5,1.6,6.5c0.5,0,1.1,0,1.7-0.1c2.4-0.3,4.3-1.1,4.2-1.8C7.5,4.1,6.3,3.8,4.7,3.8L4.7,3.8z"/>
								</g>
							</g>
						</g>
						<g class="st1">
							<path class="st19" d="M9.5-2.2c0,0,0-0.5-0.3-0.5c-0.2,0-0.6,0-0.7,0.9S8.4,0.5,9,1.5c0.6,1,1.3,1.2,1.6,1.1
								c0.3-0.1-0.6-1.2-0.9-2.1C9.5-0.4,9.5-2.2,9.5-2.2z"/>
						</g>
						<g class="st1">
							<path class="st19" d="M18.3-1.3c0,0-0.2,2.3-2.6,2.4c-2.4,0-1.5,0.5-1.1,0.6c0.4,0.1,2.7,0.6,3.7-0.5c1-1.1,0.8-3.2,0.8-3.4
								C19-2.4,18.5-2.3,18.3-1.3z"/>
						</g>
						<g class="st1">
							<path class="st19" d="M5.7,2C4.9,2,3.9,2,2.8,2.1C0.4,2.4-1.5,3.2-1.4,3.9l0.2,1.8c0-0.4,0.5-0.8,1.3-1.1
								C1.5,3.4,3.9,2.5,5.7,2z"/>
						</g>
						<g class="st1">
							<path class="st20" d="M3.1,4.3c-2.5,0.3-3.8,1-3.9,1.3C-0.7,5.8,0,6.1,1.6,6.1c0,0,0.1,0,0.1,0c0.1-0.8,1.1-1.4,2-1.8
								C3.5,4.3,3.3,4.3,3.1,4.3z"/>
						</g>
						<g class="st1">
							<path class="st20" d="M25.3,4.3c-0.6-0.1-1.2-0.1-1.7-0.1c-1.6,0-2.3,0.3-2.4,0.5c0.1,0.2,1,0.8,2.9,1.2
								C25,5.4,26.6,5.1,28,5C27.4,4.7,26.5,4.5,25.3,4.3z"/>
						</g>
						<g class="st1">
							<path class="st19" d="M25.6,2.1c-2.4-0.3-4.5,0-4.5,0.7l-0.2,1.8c0.1-0.6,1.8-0.9,3.9-0.8c0.6-0.7,1.6-1.2,2.5-1.5
								C26.7,2.3,26.1,2.2,25.6,2.1z"/>
						</g>
						<g class="st1">
							<path class="st19" d="M10.7,7.1c0,0-2.3,1.2-2.5,3s0.4-0.8,3.2-1.7c2.6-0.8,3.9-0.2,4.3-0.2C16.2,8.3,14.1,5.8,10.7,7.1z"/>
						</g>
						<g class="st1">
							<path class="st19" d="M17.8,23c-1.8,0.5,2.4,0.9,3.7,0c1.2-0.8,1-5.3,0.8-6C22,16.3,20.3,22.3,17.8,23z"/>
						</g>
						<g class="st1">
							<path class="st19" d="M7.3-1.9c0,0-4.5,0.8-5.9,1.9S0.2,1.1,0.8,1.1c0.5,0,2.8-0.1,4.4-1.3S8.4-2.1,7.3-1.9z"/>
						</g>
						<g class="st1">
							<path class="st19" d="M24.6-1c0,0-2.2-0.8-3.1-1c-0.9-0.2-0.5,1.1-0.5,1.8s2.2,0.7,3.5,0.8s2.2,0.7,2.4,0.2
								C27.2,0.3,25.4-0.7,24.6-1z"/>
						</g>
					</g>
					<path class="st21" d="M18.8,12.2c-0.9-1-2.2-1.7-3.7-1.7c-2.7,0-4.9,2.2-4.9,4.9c0,1.6,0.8,3,2,3.9
						C14,15.6,16.5,13.5,18.8,12.2z"/>
				</g>
			</g>
		</g>
	</g>
</g>
<g>
	
		<linearGradient id="SVGID_13_" gradientUnits="userSpaceOnUse" x1="11.1246" y1="16.8614" x2="12.876" y2="16.8614" gradientTransform="matrix(1 0 0 -1 0 32)">
		<stop  offset="0" style="stop-color:#834D9B"/>
		<stop  offset="1" style="stop-color:#A84D9B"/>
	</linearGradient>
	<path class="st22" d="M11.8,16.3v-1.9h-0.6V14h1.8v0.4h-0.6v1.9H11.8z"/>
	
		<linearGradient id="SVGID_14_" gradientUnits="userSpaceOnUse" x1="13.2142" y1="16.8477" x2="14.6657" y2="16.8477" gradientTransform="matrix(1 0 0 -1 0 32)">
		<stop  offset="0" style="stop-color:#834D9B"/>
		<stop  offset="1" style="stop-color:#A84D9B"/>
	</linearGradient>
	<path class="st23" d="M13.2,16.3V14h1.4v0.4h-1v0.5h0.9v0.4h-0.9v0.5h1v0.4L13.2,16.3L13.2,16.3z"/>
	
		<linearGradient id="SVGID_15_" gradientUnits="userSpaceOnUse" x1="15.0453" y1="16.8477" x2="16.4458" y2="16.8477" gradientTransform="matrix(1 0 0 -1 0 32)">
		<stop  offset="0" style="stop-color:#834D9B"/>
		<stop  offset="1" style="stop-color:#A84D9B"/>
	</linearGradient>
	<path class="st24" d="M15,16.3V14h0.5v1.9h0.9v0.4L15,16.3L15,16.3z"/>
	
		<linearGradient id="SVGID_16_" gradientUnits="userSpaceOnUse" x1="16.78" y1="16.8477" x2="18.2315" y2="16.8477" gradientTransform="matrix(1 0 0 -1 0 32)">
		<stop  offset="0" style="stop-color:#834D9B"/>
		<stop  offset="1" style="stop-color:#A84D9B"/>
	</linearGradient>
	<path class="st25" d="M16.8,16.3V14h1.4v0.4h-1v0.5h0.9v0.4h-0.9v0.5h1v0.4L16.8,16.3L16.8,16.3z"/>
</g>
</svg>
